<?xml version="1.0" encoding="UTF-8"?>
<!DOCTYPE svg PUBLIC "-//W3C//DTD SVG 1.1//EN" "http://www.w3.org/Graphics/SVG/1.1/DTD/svg11.dtd">
<!-- Creator: CorelDRAW X7 -->
<svg xmlns="http://www.w3.org/2000/svg" xml:space="preserve" width="12.1918mm" height="12.1918mm" version="1.1" style="shape-rendering:geometricPrecision; text-rendering:geometricPrecision; image-rendering:optimizeQuality; fill-rule:evenodd; clip-rule:evenodd"
viewBox="0 0 1219 1219"
 xmlns:xlink="http://www.w3.org/1999/xlink">
 <defs>
  <style type="text/css">
   <![CDATA[
    .fil2 {fill:#474443}
    .fil0 {fill:#F29740}
    .fil1 {fill:#F08519}
   ]]>
  </style>
 </defs>
 <g id="Layer_x0020_1">
  <metadata id="CorelCorpID_0Corel-Layer"/>
  <g id="_724779568">
   <path class="fil0" d="M610 86c289,0 523,235 523,524 0,289 -234,523 -523,523 -289,0 -524,-234 -524,-523 0,-289 235,-524 524,-524zm0 -86c336,0 609,273 609,610 0,336 -273,609 -609,609 -337,0 -610,-273 -610,-609 0,-337 273,-610 610,-610z"/>
   <path class="fil1" d="M369 778c94,133 277,165 409,72 1,-1 2,-1 3,-2l0 0c2,-2 4,-3 6,-4l1 -1c1,-1 3,-2 4,-4l2 -1c1,-1 2,-2 4,-3 1,-1 2,-2 2,-2 1,-1 2,-2 3,-3 1,-1 2,-2 3,-3 1,0 2,-1 2,-1 2,-1 3,-3 4,-4l2 -1c1,-1 2,-3 3,-4l2 -1c1,-2 2,-3 3,-4l2 -1c1,-2 2,-3 4,-5l1 -1c1,-1 2,-3 4,-5l0 0c2,-2 3,-4 4,-5l1 -1c1,-1 3,-3 4,-5l0 0c2,-2 3,-4 4,-6l1 0c1,-2 2,-4 3,-5l1 -1c1,-2 2,-4 4,-5l0 -1c1,-2 2,-4 3,-6l1 0c1,-3 3,-6 5,-9l-70 -40c-1,2 -2,5 -4,7l0 0c-1,1 -1,3 -2,4l-1 0c0,2 -1,3 -2,4l0 1c-1,1 -2,2 -3,3l-1 1c0,1 -1,2 -2,4l-1 0c-1,1 -2,2 -3,4l0 0c-1,1 -2,3 -3,4l0 0c-1,1 -2,3 -3,4l-1 0c-1,2 -2,3 -3,4l-1 0c-1,1 -2,2 -3,3l-1 1c0,1 -1,2 -2,3l-1 1c-1,1 -2,2 -3,2 0,1 -1,1 -1,2 -1,1 -2,1 -3,2 0,0 -1,1 -2,2 0,0 -1,1 -2,1 -1,1 -2,2 -3,3l-1 0c-1,1 -2,2 -3,3l-1 1c-1,1 -2,2 -4,2l0 1c-1,0 -1,1 -2,1 -96,68 -229,44 -297,-52 -68,-96 -44,-229 52,-297 95,-66 225,-45 294,48l0 0c1,1 2,3 3,4l0 0c4,5 7,11 10,16l70 -40c-4,-8 -9,-15 -14,-22l0 0c-2,-2 -3,-4 -5,-6l0 0c-94,-128 -274,-157 -404,-66 -133,94 -165,277 -72,409z"/>
   <path class="fil1" d="M610 18c326,0 591,265 591,592 0,326 -265,591 -591,591 -327,0 -592,-265 -592,-591 0,-327 265,-592 592,-592zm0 84c280,0 508,227 508,508 0,280 -228,508 -508,508 -281,0 -508,-228 -508,-508 0,-281 227,-508 508,-508z"/>
   <path class="fil2" d="M610 169c163,0 305,89 381,220l-52 30 -17 10c-63,-107 -179,-180 -312,-180 -199,0 -361,162 -361,361 0,199 162,360 361,360 184,0 337,-140 357,-319l-220 0c-18,59 -72,102 -137,102 -80,0 -144,-64 -144,-143 0,-80 64,-144 144,-144 65,0 119,43 137,102l301 0c1,14 2,28 2,42 0,3 0,7 0,11l0 0c0,4 0,7 -1,10 0,1 0,2 0,3 0,2 0,5 0,7 0,2 0,4 -1,6 0,1 0,3 0,4 -21,224 -209,399 -438,399 -244,0 -441,-197 -441,-440 0,-244 197,-441 441,-441z"/>
  </g>
 </g>
</svg>
