<?xml version="1.0" encoding="UTF-8"?>
<!DOCTYPE svg PUBLIC "-//W3C//DTD SVG 1.1//EN" "http://www.w3.org/Graphics/SVG/1.1/DTD/svg11.dtd">
<!-- Creator: CorelDRAW X7 -->
<svg xmlns="http://www.w3.org/2000/svg" xml:space="preserve" width="21.6746mm" height="21.6746mm" version="1.1" style="shape-rendering:geometricPrecision; text-rendering:geometricPrecision; image-rendering:optimizeQuality; fill-rule:evenodd; clip-rule:evenodd"
viewBox="0 0 2167 2167"
 xmlns:xlink="http://www.w3.org/1999/xlink">
 <defs>
  <style type="text/css">
   <![CDATA[
    .fil2 {fill:#474443}
    .fil0 {fill:#F29740}
    .fil1 {fill:#F08519}
   ]]>
  </style>
 </defs>
 <g id="Layer_x0020_1">
  <metadata id="CorelCorpID_0Corel-Layer"/>
  <g id="_618557200">
   <path class="fil0" d="M1084 153c514,0 930,417 930,931 0,514 -416,930 -930,930 -514,0 -931,-416 -931,-930 0,-514 417,-931 931,-931zm0 -153c598,0 1083,485 1083,1084 0,598 -485,1083 -1083,1083 -599,0 -1084,-485 -1084,-1083 0,-599 485,-1084 1084,-1084z"/>
   <path class="fil1" d="M657 1384c165,236 491,292 727,127 1,-1 3,-3 5,-4l0 0c3,-2 7,-5 10,-7l1 -1c3,-2 6,-5 9,-7l2 -2c3,-2 5,-4 7,-6 2,-1 3,-2 5,-4 2,-1 3,-2 5,-4 2,-2 4,-3 6,-5 1,-1 2,-2 3,-3 2,-2 4,-4 6,-6l4 -3c2,-2 4,-4 6,-6l2 -3c3,-2 5,-4 7,-7l2 -2c3,-2 5,-5 7,-7l2 -3c3,-2 5,-5 7,-8l1 -1c3,-3 5,-6 8,-9l1 -1c2,-3 4,-6 7,-9l1 -1c2,-3 4,-6 6,-9l1 -1c3,-3 5,-7 7,-10l1 -1c2,-3 4,-6 6,-9l1 -1c2,-3 4,-7 6,-10l0 -1c4,-5 7,-10 10,-15l-124 -72c-2,4 -4,8 -7,12l0 0c-1,2 -3,5 -5,7l0 1c-2,2 -3,5 -5,7l0 1c-2,2 -3,4 -5,6l-1 1c-1,2 -3,5 -5,7l0 1c-2,2 -4,4 -5,6l-1 1c-2,2 -4,4 -5,6l-1 1c-2,2 -4,4 -5,6l-2 2c-2,2 -3,3 -5,5l-1 2c-2,2 -4,3 -5,5l-2 2c-2,1 -3,3 -5,4l-2 2c-2,2 -3,3 -4,5 -1,0 -2,1 -3,2 -1,1 -3,2 -4,4 -1,1 -3,2 -4,3 -1,1 -2,2 -3,3 -2,1 -4,2 -5,4l-2 1c-2,2 -4,4 -7,5l0 1c-3,2 -5,3 -7,5l-1 0c-1,1 -2,2 -3,3 -172,120 -408,79 -528,-92 -121,-172 -79,-408 92,-528 169,-119 400,-81 522,84l0 0c2,3 4,5 6,8l0 0c6,9 12,19 18,28l124 -71c-8,-13 -16,-26 -25,-39l0 0c-3,-4 -5,-8 -8,-11l0 0c-168,-227 -487,-279 -719,-116 -236,165 -293,491 -127,727z"/>
   <path class="fil1" d="M1084 32c581,0 1051,471 1051,1052 0,581 -470,1051 -1051,1051 -581,0 -1052,-470 -1052,-1051 0,-581 471,-1052 1052,-1052zm0 149c498,0 903,404 903,903 0,498 -405,903 -903,903 -499,0 -903,-405 -903,-903 0,-499 404,-903 903,-903z"/>
   <path class="fil2" d="M1084 301c289,0 542,157 678,391l-92 53 -32 19c-110,-192 -317,-321 -554,-321 -354,0 -641,287 -641,641 0,353 287,640 641,640 328,0 599,-248 636,-566l-392 0c-31,105 -129,181 -244,181 -141,0 -256,-114 -256,-255 0,-141 115,-256 256,-256 115,0 213,77 244,182l535 0c2,24 4,49 4,74 0,6 -1,13 -1,19l0 2c0,5 0,11 0,17 0,1 -1,3 -1,5 0,4 0,8 0,12 -1,4 -1,7 -1,11 0,3 -1,5 -1,7 -37,398 -372,710 -779,710 -433,0 -783,-351 -783,-783 0,-433 350,-783 783,-783z"/>
  </g>
 </g>
</svg>
