<svg xmlns="http://www.w3.org/2000/svg" xmlns:xlink="http://www.w3.org/1999/xlink" width="15.359" height="15.359" version="1.1" viewBox="0 0 406 406" xml:space="preserve" style="shape-rendering:geometricPrecision;text-rendering:geometricPrecision;image-rendering:optimizeQuality;fill-rule:evenodd;clip-rule:evenodd"><defs><style type="text/css">.fil2{fill:#474443}.fil0{fill:#f29740}.fil1{fill:#f08519}</style></defs><g id="Layer_x0020_1"><metadata id="CorelCorpID_0Corel-Layer"/><g id="_731522496"><path d="M203 29c97,0 175,78 175,174 0,97 -78,175 -175,175 -96,0 -174,-78 -174,-175 0,-96 78,-174 174,-174zm0 -29c112,0 203,91 203,203 0,112 -91,203 -203,203 -112,0 -203,-91 -203,-203 0,-112 91,-203 203,-203z" class="fil0"/><path d="M123 259c31,45 92,55 136,24 1,0 1,0 1,0l0 0c1,-1 2,-1 2,-2l1 0c0,0 1,-1 1,-1l1 -1c0,0 0,0 1,-1 0,0 1,0 1,0 0,-1 0,-1 1,-1 0,-1 0,-1 1,-1 0,0 0,-1 0,-1 1,0 1,-1 2,-1l0 0c1,-1 1,-1 1,-2l1 0c0,-1 1,-1 1,-1l1 -1c0,0 0,-1 1,-1l0 -1c1,0 1,-1 2,-1l0 0c0,-1 1,-2 1,-2l0 0c1,-1 1,-1 2,-2l0 0c0,-1 1,-1 1,-2l0 0c1,-1 1,-1 1,-2l1 0c0,-1 0,-1 1,-2l0 0c0,-1 1,-1 1,-2l0 0c1,-1 1,-2 2,-3l-23 -13c-1,0 -1,1 -2,2l0 0c0,0 0,1 0,1l-1 0c0,1 0,1 0,2l0 0c-1,0 -1,1 -1,1l-1 0c0,1 0,1 0,2l-1 0c0,0 0,0 -1,1l0 0c0,0 0,1 -1,1l0 0c0,1 0,1 -1,2l0 0c0,0 -1,1 -1,1l0 0c-1,0 -1,1 -1,1l-1 0c0,1 0,1 0,1l-1 1c0,0 0,0 -1,0 0,1 0,1 0,1 0,0 -1,0 -1,1 0,0 0,0 -1,0 0,0 0,1 0,1 -1,0 -1,0 -1,1l-1 0c0,0 0,0 -1,1l0 0c0,0 -1,1 -1,1l0 0c-1,0 -1,0 -1,0 -32,23 -76,15 -99,-17 -23,-32 -15,-76 17,-99 32,-22 75,-15 98,16l0 0c1,0 1,1 1,1l0 0c2,2 3,4 4,6l23 -14c-1,-2 -3,-5 -5,-7l0 0c0,-1 -1,-1 -1,-2l0 0c-32,-43 -92,-52 -135,-22 -44,31 -55,92 -24,136z" class="fil1"/><path d="M203 6c109,0 197,88 197,197 0,109 -88,197 -197,197 -109,0 -197,-88 -197,-197 0,-109 88,-197 197,-197zm0 28c94,0 170,76 170,169 0,94 -76,170 -170,170 -93,0 -169,-76 -169,-170 0,-93 76,-169 169,-169z" class="fil1"/><path d="M203 56c55,0 102,30 127,74l-17 10 -6 3c-21,-36 -59,-60 -104,-60 -66,0 -120,54 -120,120 0,67 54,120 120,120 62,0 113,-46 119,-106l-73 0c-6,20 -24,34 -46,34 -26,0 -48,-21 -48,-48 0,-26 22,-48 48,-48 22,0 40,15 46,34l100 0c1,5 1,10 1,14 0,1 0,3 0,4l0 0c0,1 0,2 0,3 0,1 0,1 0,1 0,1 0,2 0,3 0,0 0,1 -1,2 0,0 0,1 0,1 -7,75 -69,133 -146,133 -81,0 -147,-66 -147,-147 0,-81 66,-147 147,-147z" class="fil2"/></g></g></svg>