<?xml version="1.0" encoding="UTF-8"?>
<!DOCTYPE svg PUBLIC "-//W3C//DTD SVG 1.1//EN" "http://www.w3.org/Graphics/SVG/1.1/DTD/svg11.dtd">
<!-- Creator: CorelDRAW X7 -->
<svg xmlns="http://www.w3.org/2000/svg" xml:space="preserve" width="4.064mm" height="4.064mm" version="1.1" style="shape-rendering:geometricPrecision; text-rendering:geometricPrecision; image-rendering:optimizeQuality; fill-rule:evenodd; clip-rule:evenodd"
viewBox="0 0 406 406"
 xmlns:xlink="http://www.w3.org/1999/xlink">
 <defs>
  <style type="text/css">
   <![CDATA[
    .fil1 {fill:#FCC900}
    .fil0 {fill:#BCB6A0}
    .fil2 {fill:#242222}
   ]]>
  </style>
 </defs>
 <g id="Layer_x0020_1">
  <metadata id="CorelCorpID_0Corel-Layer"/>
  <g id="_771965968">
   <path class="fil0" d="M203 29c97,0 175,78 175,174 0,97 -78,175 -175,175 -96,0 -174,-78 -174,-175 0,-96 78,-174 174,-174zm0 -29c112,0 203,91 203,203 0,112 -91,203 -203,203 -112,0 -203,-91 -203,-203 0,-112 91,-203 203,-203z"/>
   <path class="fil1" d="M130 259c31,45 92,55 136,24 0,0 1,0 1,0l0 0c1,-1 1,-1 2,-2l0 0c1,0 1,-1 2,-1l0 -1c1,0 1,0 1,-1 1,0 1,0 1,0 1,-1 1,-1 1,-1 1,-1 1,-1 1,-1 1,0 1,-1 1,-1 0,0 1,-1 1,-1l1 0c0,-1 1,-1 1,-2l0 0c1,-1 1,-1 2,-1l0 -1c1,0 1,-1 1,-1l1 -1c0,0 1,-1 1,-1l0 0c1,-1 1,-2 2,-2l0 0c0,-1 1,-1 1,-2l0 0c1,-1 1,-1 2,-2l0 0c0,-1 1,-1 1,-2l0 0c1,-1 1,-1 1,-2l0 0c1,-1 1,-1 2,-2l0 0c0,-1 1,-2 2,-3l-24 -13c0,0 -1,1 -1,2l0 0c0,0 -1,1 -1,1l0 0c0,1 -1,1 -1,2l0 0c0,0 -1,1 -1,1l0 0c0,1 -1,1 -1,2l0 0c0,0 -1,0 -1,1l0 0c0,0 -1,1 -1,1l0 0c-1,1 -1,1 -1,2l0 0c-1,0 -1,1 -1,1l-1 0c0,0 0,1 -1,1l0 0c0,1 -1,1 -1,1l0 1c-1,0 -1,0 -1,0 0,1 0,1 -1,1 0,0 0,0 0,1 -1,0 -1,0 -1,0 0,0 0,1 -1,1 0,0 0,0 -1,1l0 0c0,0 -1,0 -1,1l0 0c-1,0 -1,1 -2,1l0 0c0,0 0,0 0,0 -33,23 -77,15 -99,-17 -23,-32 -15,-76 17,-99 32,-22 75,-15 98,16l0 0c0,0 1,1 1,1l0 0c1,2 2,4 3,6l23 -14c-1,-2 -2,-5 -4,-7l0 0c-1,-1 -1,-1 -2,-2l0 0c-31,-43 -91,-52 -134,-22 -45,31 -55,92 -24,136z"/>
   <path class="fil1" d="M203 34c94,0 170,76 170,169 0,94 -76,170 -170,170 -93,0 -169,-76 -169,-170 0,-93 76,-169 169,-169zm0 -28c109,0 197,88 197,197 0,109 -88,197 -197,197 -109,0 -197,-88 -197,-197 0,-109 88,-197 197,-197z"/>
   <path class="fil2" d="M203 56c55,0 102,30 127,74l-17 10 -6 3c-21,-36 -59,-60 -104,-60 -66,0 -120,54 -120,120 0,67 54,120 120,120 62,0 113,-46 119,-106l-73 0c-6,20 -24,34 -46,34 -26,0 -48,-21 -48,-48 0,-26 22,-48 48,-48 22,0 40,15 46,34l100 0c1,5 1,10 1,14 0,1 0,3 0,4l0 0c0,1 0,2 0,3 0,1 0,1 0,1 0,1 0,2 0,3 0,0 0,1 -1,2 0,0 0,1 0,1 -7,75 -69,133 -146,133 -81,0 -147,-66 -147,-147 0,-81 66,-147 147,-147z"/>
  </g>
 </g>
</svg>
