<?xml version="1.0" encoding="UTF-8"?>
<!DOCTYPE svg PUBLIC "-//W3C//DTD SVG 1.1//EN" "http://www.w3.org/Graphics/SVG/1.1/DTD/svg11.dtd">
<!-- Creator: CorelDRAW X7 -->
<svg xmlns="http://www.w3.org/2000/svg" xml:space="preserve" width="43.3492mm" height="43.3492mm" version="1.1" style="shape-rendering:geometricPrecision; text-rendering:geometricPrecision; image-rendering:optimizeQuality; fill-rule:evenodd; clip-rule:evenodd"
viewBox="0 0 4335 4335"
 xmlns:xlink="http://www.w3.org/1999/xlink">
 <defs>
  <style type="text/css">
   <![CDATA[
    .fil2 {fill:#474443}
    .fil0 {fill:#F29740}
    .fil1 {fill:#F08519}
   ]]>
  </style>
 </defs>
 <g id="Layer_x0020_1">
  <metadata id="CorelCorpID_0Corel-Layer"/>
  <g id="_726221312">
   <path class="fil0" d="M2167 307c1028,0 1861,833 1861,1860 0,1028 -833,1861 -1861,1861 -1027,0 -1860,-833 -1860,-1861 0,-1027 833,-1860 1860,-1860zm0 -307c1198,0 2168,970 2168,2167 0,1198 -970,2168 -2168,2168 -1197,0 -2167,-970 -2167,-2168 0,-1197 970,-2167 2167,-2167z"/>
   <path class="fil1" d="M1313 2767c332,472 983,586 1454,255 4,-3 7,-5 10,-7l1 -1c7,-5 13,-10 19,-14l3 -2c6,-5 11,-9 17,-13l6 -5c4,-4 9,-8 14,-11 3,-3 6,-6 9,-8 3,-3 7,-6 10,-9 4,-3 8,-7 11,-10 3,-2 5,-4 8,-7 4,-3 8,-7 12,-11l6 -6c4,-4 9,-8 13,-13l5 -5c4,-4 9,-9 13,-13l5 -5c4,-5 9,-10 13,-15l4 -4c5,-6 10,-11 15,-17l2 -2c5,-6 10,-12 15,-18l1 -2c5,-6 10,-12 15,-18l1 -2c5,-6 9,-12 14,-19l2 -2c4,-6 8,-12 13,-18l1 -2c5,-7 9,-13 13,-20l1 -1c5,-7 9,-14 13,-20l1 -1c6,-10 12,-21 19,-32l-248 -142c-4,7 -9,15 -14,22l0 1c-3,5 -6,10 -9,15l-1 1c-3,4 -6,9 -10,14l-1 1c-3,5 -6,9 -9,14l-1 1c-4,5 -7,9 -10,14l-1 1c-4,4 -7,9 -11,13l-1 2c-4,4 -7,8 -11,13l-1 1c-4,4 -7,8 -11,12l-3 4c-3,3 -6,7 -10,10l-3 4c-3,3 -6,6 -10,10l-3 3c-3,4 -6,7 -10,10l-4 4c-3,3 -6,5 -9,8 -2,2 -3,3 -5,5 -3,2 -6,5 -9,7 -2,3 -4,5 -7,7 -2,2 -4,3 -7,5 -3,3 -6,6 -10,9l-4 3c-4,3 -8,6 -12,9l-2 2c-5,3 -9,7 -14,10l-1 1c-2,1 -4,3 -7,5 -342,240 -815,158 -1056,-185 -240,-342 -158,-815 185,-1056 337,-237 800,-160 1044,169l0 0c4,5 8,10 12,16l0 0c13,18 25,37 36,56l247 -142c-15,-27 -31,-53 -49,-78l-1 -1c-5,-7 -10,-14 -15,-21l0 0c-336,-454 -974,-559 -1438,-233 -472,332 -586,983 -255,1454z"/>
   <path class="fil1" d="M2167 64c1162,0 2104,942 2104,2103 0,1162 -942,2104 -2104,2104 -1161,0 -2103,-942 -2103,-2104 0,-1161 942,-2103 2103,-2103zm0 298c998,0 1806,808 1806,1805 0,998 -808,1806 -1806,1806 -997,0 -1805,-808 -1805,-1806 0,-997 808,-1805 1805,-1805z"/>
   <path class="fil2" d="M2167 602c580,0 1086,315 1357,783l-184 106 -63 36c-222,-383 -636,-640 -1110,-640 -707,0 -1280,573 -1280,1280 0,708 573,1281 1280,1281 658,0 1199,-495 1273,-1133l-783 0c-64,210 -259,363 -490,363 -282,0 -510,-228 -510,-511 0,-282 228,-510 510,-510 231,0 426,153 490,363l1069 0c5,48 7,98 7,147 0,13 0,26 0,39l0 4c-1,11 -1,22 -2,33 0,4 0,8 0,11 -1,8 -1,16 -2,24 0,8 -1,15 -2,22 0,5 0,10 -1,15 -74,795 -744,1418 -1559,1418 -864,0 -1565,-701 -1565,-1566 0,-864 701,-1565 1565,-1565z"/>
  </g>
 </g>
</svg>
