<?xml version="1.0" encoding="UTF-8"?>
<!DOCTYPE svg PUBLIC "-//W3C//DTD SVG 1.1//EN" "http://www.w3.org/Graphics/SVG/1.1/DTD/svg11.dtd">
<!-- Creator: CorelDRAW X7 -->
<svg xmlns="http://www.w3.org/2000/svg" xml:space="preserve" width="6.096mm" height="6.096mm" version="1.1" style="shape-rendering:geometricPrecision; text-rendering:geometricPrecision; image-rendering:optimizeQuality; fill-rule:evenodd; clip-rule:evenodd"
viewBox="0 0 610 610"
 xmlns:xlink="http://www.w3.org/1999/xlink">
 <defs>
  <style type="text/css">
   <![CDATA[
    .fil1 {fill:#FCC900}
    .fil0 {fill:#BCB6A0}
    .fil2 {fill:#242222}
   ]]>
  </style>
 </defs>
 <g id="Layer_x0020_1">
  <metadata id="CorelCorpID_0Corel-Layer"/>
  <g id="_612768016">
   <path class="fil0" d="M305 43c144,0 262,117 262,262 0,144 -118,262 -262,262 -145,0 -262,-118 -262,-262 0,-145 117,-262 262,-262zm0 -43c168,0 305,136 305,305 0,168 -137,305 -305,305 -169,0 -305,-137 -305,-305 0,-169 136,-305 305,-305z"/>
   <path class="fil1" d="M195 389c46,67 138,83 204,36 0,0 1,-1 1,-1l1 0c0,-1 1,-1 2,-2l1 0c0,-1 1,-2 2,-2l1 -1c0,0 1,-1 2,-2 0,0 1,0 1,-1 1,0 1,0 1,-1 1,0 2,-1 2,-1 0,-1 1,-1 1,-1 1,-1 1,-1 2,-2l1 -1c0,0 1,-1 1,-1l1 -1c1,-1 1,-1 2,-2l1 -1c0,0 1,-1 2,-2l0 0c1,-1 2,-2 2,-3l0 0c1,-1 2,-2 3,-3l0 0c0,-1 1,-2 2,-2l0 -1c1,-1 1,-1 2,-2l0 -1c1,0 1,-1 2,-2l0 0c1,-1 1,-2 2,-3l0 0c1,-1 1,-2 2,-3l0 0c1,-2 2,-3 3,-5l-35 -20c-1,1 -1,2 -2,3l0 0c0,1 -1,2 -1,2l0 1c-1,0 -1,1 -2,2l0 0c0,0 -1,1 -1,2l0 0c-1,1 -1,1 -2,2l0 0c0,1 -1,1 -1,2l-1 0c0,1 -1,1 -1,2l0 0c-1,1 -1,1 -2,2l0 0c-1,1 -1,1 -2,2l0 0c-1,1 -1,1 -1,2l-1 0c0,1 -1,1 -1,1l-1 1c0,0 -1,1 -1,1 0,0 -1,1 -1,1 0,0 -1,1 -1,1 0,0 -1,1 -1,1 0,0 -1,0 -1,1 -1,0 -1,0 -1,1l-1 0c-1,1 -1,1 -2,2l0 0c-1,0 -1,1 -2,1l0 0c0,1 -1,1 -1,1 -48,34 -115,22 -149,-26 -33,-48 -22,-115 26,-148 48,-34 113,-23 147,23l0 0c1,1 1,2 2,3l0 0c2,2 3,5 5,8l35 -21c-2,-3 -5,-7 -7,-11l0 0c-1,-1 -2,-2 -2,-3l0 0c-48,-63 -137,-78 -203,-32 -66,46 -82,138 -35,204z"/>
   <path class="fil1" d="M305 51c140,0 254,114 254,254 0,140 -114,254 -254,254 -140,0 -254,-114 -254,-254 0,-140 114,-254 254,-254zm0 -42c163,0 296,132 296,296 0,163 -133,296 -296,296 -164,0 -296,-133 -296,-296 0,-164 132,-296 296,-296z"/>
   <path class="fil2" d="M305 85c81,0 152,44 191,110l-26 15 -9 5c-31,-54 -90,-90 -156,-90 -100,0 -180,80 -180,180 0,99 80,180 180,180 92,0 168,-70 179,-159l-110 0c-9,29 -37,51 -69,51 -40,0 -72,-33 -72,-72 0,-40 32,-72 72,-72 32,0 60,21 69,51l150 0c1,7 1,14 1,21 0,2 0,3 0,5l0 1c0,1 0,3 0,4 0,1 0,2 0,2 0,1 -1,2 -1,3 0,1 0,2 0,3 0,1 0,2 0,3 -10,111 -105,199 -219,199 -122,0 -220,-99 -220,-220 0,-122 98,-220 220,-220z"/>
  </g>
 </g>
</svg>
