<?xml version="1.0" encoding="UTF-8"?>
<!DOCTYPE svg PUBLIC "-//W3C//DTD SVG 1.1//EN" "http://www.w3.org/Graphics/SVG/1.1/DTD/svg11.dtd">
<!-- Creator: CorelDRAW X7 -->
<svg xmlns="http://www.w3.org/2000/svg" xml:space="preserve" width="8.1278mm" height="8.1278mm" version="1.1" style="shape-rendering:geometricPrecision; text-rendering:geometricPrecision; image-rendering:optimizeQuality; fill-rule:evenodd; clip-rule:evenodd"
viewBox="0 0 813 813"
 xmlns:xlink="http://www.w3.org/1999/xlink">
 <defs>
  <style type="text/css">
   <![CDATA[
    .fil2 {fill:#474443}
    .fil0 {fill:#F29740}
    .fil1 {fill:#F08519}
   ]]>
  </style>
 </defs>
 <g id="Layer_x0020_1">
  <metadata id="CorelCorpID_0Corel-Layer"/>
  <g id="_618552208">
   <path class="fil0" d="M406 57c193,0 349,157 349,349 0,193 -156,349 -349,349 -192,0 -349,-156 -349,-349 0,-192 157,-349 349,-349zm0 -57c225,0 407,182 407,406 0,225 -182,407 -407,407 -224,0 -406,-182 -406,-407 0,-224 182,-406 406,-406z"/>
   <path class="fil1" d="M246 519c62,88 184,110 273,48 1,-1 1,-1 2,-2l0 0c1,-1 2,-2 4,-3l0 0c1,-1 2,-2 3,-2l1 -1c1,-1 2,-2 3,-2 0,-1 1,-1 2,-2 0,0 1,-1 1,-1 1,-1 2,-2 3,-2 0,-1 1,-1 1,-2 1,0 2,-1 2,-2l1 -1c1,-1 2,-1 3,-2l1 -1c1,-1 1,-2 2,-3l1 -1c1,-1 2,-1 3,-2l0 -1c1,-1 2,-2 3,-3l1 -1c0,-1 1,-2 2,-3l1 -1c1,-1 1,-2 2,-3l1 0c0,-1 1,-3 2,-4l0 0c1,-1 2,-2 3,-4l0 0c1,-1 2,-2 3,-4l0 0c1,-1 1,-2 2,-4l0 0c2,-2 3,-4 4,-6l-46 -27c-1,2 -2,3 -3,5l0 0c-1,1 -1,2 -2,3l0 0c-1,1 -1,2 -2,2l0 1c-1,1 -1,1 -2,2l0 1c-1,0 -1,1 -2,2l0 0c-1,1 -1,2 -2,3l0 0c-1,1 -2,2 -2,2l-1 1c0,1 -1,1 -2,2l0 1c-1,0 -1,1 -2,2l-1 0c0,1 -1,2 -1,2l-1 1c-1,0 -1,1 -2,2l-1 0c0,1 -1,1 -1,2 -1,0 -1,1 -1,1 -1,0 -1,1 -2,1 0,1 -1,1 -1,1 -1,1 -1,1 -1,1 -1,1 -2,2 -2,2l-1 1c-1,0 -2,1 -2,1l-1 1c-1,0 -2,1 -2,2l-1 0c0,0 0,0 -1,1 -64,45 -153,29 -198,-35 -45,-64 -30,-153 35,-198 63,-44 150,-30 196,32l0 0c0,1 1,2 2,3l0 0c2,3 4,7 6,10l47 -26c-3,-5 -6,-10 -9,-15l0 0c-1,-1 -2,-3 -3,-4l0 0c-63,-85 -183,-105 -270,-44 -89,62 -110,184 -48,273z"/>
   <path class="fil1" d="M406 12c218,0 395,177 395,394 0,218 -177,395 -395,395 -217,0 -394,-177 -394,-395 0,-217 177,-394 394,-394zm0 56c187,0 339,151 339,338 0,187 -152,339 -339,339 -187,0 -338,-152 -338,-339 0,-187 151,-338 338,-338z"/>
   <path class="fil2" d="M406 113c109,0 204,59 255,147l-35 19 -12 7c-41,-71 -119,-120 -208,-120 -132,0 -240,108 -240,240 0,133 108,241 240,241 124,0 225,-93 239,-213l-147 0c-12,39 -48,68 -92,68 -53,0 -95,-43 -95,-96 0,-53 42,-95 95,-95 44,0 80,28 92,68l201 0c0,9 1,18 1,27 0,3 0,5 0,8l0 0c0,2 0,4 0,7 0,0 0,1 -1,2 0,1 0,3 0,4 0,2 0,3 0,4 0,1 0,2 0,3 -14,149 -140,266 -293,266 -162,0 -293,-131 -293,-294 0,-162 131,-293 293,-293z"/>
  </g>
 </g>
</svg>
