<?xml version="1.0" encoding="UTF-8"?>
<!DOCTYPE svg PUBLIC "-//W3C//DTD SVG 1.1//EN" "http://www.w3.org/Graphics/SVG/1.1/DTD/svg11.dtd">
<!-- Creator: CorelDRAW X7 -->
<svg xmlns="http://www.w3.org/2000/svg" xml:space="preserve" width="86.6986mm" height="27.5166mm" version="1.1" style="shape-rendering:geometricPrecision; text-rendering:geometricPrecision; image-rendering:optimizeQuality; fill-rule:evenodd; clip-rule:evenodd"
viewBox="0 0 8670 2752"
 xmlns:xlink="http://www.w3.org/1999/xlink">
 <defs>
  <style type="text/css">
   <![CDATA[
    .fil1 {fill:#FCC900}
    .fil0 {fill:#BCB6A0}
    .fil2 {fill:#242222}
    .fil3 {fill:#FCC900;fill-rule:nonzero}
    .fil4 {fill:#242222;fill-rule:nonzero}
   ]]>
  </style>
 </defs>
 <g id="Layer_x0020_1">
  <metadata id="CorelCorpID_0Corel-Layer"/>
  <path class="fil0" d="M1378 193c653,0 1182,530 1182,1183 0,653 -529,1183 -1182,1183 -654,0 -1183,-530 -1183,-1183 0,-653 529,-1183 1183,-1183zm0 -195c761,0 1377,617 1377,1378 0,761 -616,1377 -1377,1377 -761,0 -1378,-616 -1378,-1377 0,-761 617,-1378 1378,-1378z"/>
  <path class="fil1" d="M835 1757c210,300 624,372 924,162 2,-2 4,-3 6,-5l1 0c4,-3 8,-6 12,-9l2 -1c3,-3 7,-6 11,-9l3 -3c3,-2 6,-4 9,-7 2,-2 4,-3 6,-5 2,-2 4,-4 6,-5 3,-3 5,-5 8,-7 1,-1 3,-3 4,-4 3,-2 5,-5 8,-7l4 -4c3,-3 5,-5 8,-8l3 -3c3,-3 6,-6 9,-9l2 -3c3,-3 6,-6 9,-10l3 -2c3,-4 6,-7 9,-11l1 -1c3,-4 7,-8 10,-12l1 -1c3,-4 6,-8 9,-11l1 -2c3,-4 6,-7 9,-11l1 -2c2,-4 5,-8 8,-12l1 -1c3,-4 5,-8 8,-12l1 -1c3,-4 5,-9 8,-13l0 0c4,-7 8,-14 12,-20l-157 -91c-3,5 -6,10 -9,14l0 1c-2,3 -4,6 -6,9l0 1c-2,3 -4,6 -6,9l-1 1c-2,2 -4,5 -6,8l-1 1c-2,3 -4,6 -6,9l-1 1c-2,2 -4,5 -7,8l0 1c-3,3 -5,5 -7,8l-1 1c-2,3 -5,5 -7,8l-2 2c-2,2 -4,4 -6,7l-2 2c-2,2 -4,4 -6,6l-2 3c-2,1 -4,3 -6,5l-3 3c-2,2 -4,4 -6,5 -1,1 -2,2 -3,3 -2,2 -4,4 -6,5 -1,1 -3,3 -4,4 -2,1 -3,2 -4,4 -3,1 -5,3 -7,5l-2 2c-3,2 -6,4 -8,6l-2 1c-2,2 -5,4 -8,7l-1 0c-1,1 -3,2 -4,3 -218,153 -519,101 -672,-117 -153,-218 -100,-519 118,-671 214,-151 509,-102 664,107l0 0c2,3 5,6 7,10l0 0c8,12 16,24 23,36l157 -91c-10,-17 -20,-33 -31,-49l-1 -1c-3,-4 -6,-9 -9,-13l0 0c-214,-288 -619,-355 -915,-148 -299,210 -372,624 -161,924z"/>
  <path class="fil1" d="M1378 228c634,0 1148,514 1148,1148 0,634 -514,1148 -1148,1148 -634,0 -1148,-514 -1148,-1148 0,-634 514,-1148 1148,-1148zm0 -189c738,0 1337,598 1337,1337 0,738 -599,1337 -1337,1337 -739,0 -1337,-599 -1337,-1337 0,-739 598,-1337 1337,-1337z"/>
  <path class="fil2" d="M1378 381c368,0 690,200 862,497l-117 68 -40 23c-141,-243 -404,-407 -705,-407 -450,0 -814,364 -814,814 0,449 364,814 814,814 417,0 762,-315 808,-720l-497 0c-41,133 -165,231 -311,231 -180,0 -325,-146 -325,-325 0,-180 145,-325 325,-325 146,0 270,97 311,231l679 0c3,31 5,62 5,94 0,8 0,16 -1,25l0 2c0,7 0,14 0,21 0,2 -1,5 -1,7 0,5 0,10 -1,15 0,5 0,10 -1,14 0,3 0,6 -1,10 -47,505 -472,901 -990,901 -550,0 -995,-446 -995,-995 0,-550 445,-995 995,-995z"/>
  <path class="fil3" d="M4277 717c0,95 -10,173 -32,233 -32,91 -86,161 -161,210 -72,47 -157,71 -256,71 -161,0 -284,-55 -370,-164 -65,-83 -97,-182 -97,-297 0,-127 38,-234 114,-321 86,-99 206,-148 361,-148 103,0 191,27 263,79 51,38 95,93 131,167l-215 88c-19,-40 -40,-70 -64,-91 -35,-28 -77,-42 -126,-42 -98,0 -167,51 -206,152 -15,38 -22,76 -22,116 0,83 26,152 79,207 39,42 91,62 156,62 58,0 104,-17 138,-50 22,-22 37,-55 43,-98l-187 0 0 -174 451 0zm908 115c0,53 -5,98 -13,135 -13,58 -45,110 -95,158 -71,67 -166,101 -284,101 -121,0 -216,-35 -284,-103 -36,-36 -60,-81 -73,-136 -10,-38 -14,-90 -14,-155l0 -505 227 0 0 474c0,38 0,66 2,85 4,59 31,100 81,124 21,10 43,15 68,15 56,0 98,-20 126,-59 21,-28 31,-84 31,-165l0 -474 228 0 0 505zm1015 371l-243 0 -56 -152 -315 0 -60 152 -240 0 336 -876 249 0 329 876zm-360 -325l-95 -280 -97 280 192 0zm1187 325l-282 0 -217 -335 0 335 -227 0 0 -876 354 0c103,0 180,31 229,94 40,50 61,109 61,176 0,78 -23,140 -70,186 -29,30 -70,50 -122,62l274 358zm-319 -593c0,-31 -11,-58 -34,-79 -21,-20 -56,-30 -103,-30l-43 0 0 219 43 0c48,0 82,-10 103,-30 23,-22 34,-49 34,-80zm1183 155c0,91 -27,175 -82,253 -55,78 -125,132 -210,162 -46,15 -92,23 -139,23l-336 0 0 -876 336 0c82,0 158,23 228,69 69,44 122,104 158,178 30,62 45,125 45,191zm-236 0c0,-61 -17,-114 -51,-159 -45,-60 -111,-90 -201,-90l-51 0 0 498 51 0c90,0 157,-30 201,-90 34,-45 51,-98 51,-159z"/>
  <path class="fil4" d="M4030 2406c-74,30 -143,45 -206,45 -110,0 -209,-36 -296,-106 -112,-90 -167,-208 -167,-353 0,-145 55,-263 167,-353 87,-71 186,-106 298,-106 60,0 129,14 204,44l0 272c-21,-26 -43,-46 -65,-59 -41,-24 -84,-37 -131,-37 -59,0 -110,18 -154,54 -55,45 -83,107 -83,185 0,78 28,140 83,185 44,35 95,53 154,53 47,0 90,-12 131,-37 22,-12 44,-32 65,-59l0 272zm645 21l-500 0 0 -876 227 0 0 687 273 0 0 189zm948 0l-243 0 -56 -152 -314 0 -60 152 -241 0 337 -876 248 0 329 876zm-359 -326l-96 -279 -96 279 192 0zm1224 -45c0,53 -5,98 -13,135 -14,57 -45,110 -95,158 -71,67 -166,100 -284,100 -122,0 -216,-34 -284,-102 -36,-36 -60,-81 -73,-136 -10,-38 -14,-90 -14,-155l0 -505 227 0 0 473c0,38 0,67 2,85 4,60 31,101 81,125 21,10 43,14 68,14 56,0 98,-19 126,-58 21,-29 31,-84 31,-166l0 -473 228 0 0 505zm789 81c0,148 -65,245 -195,290 -45,16 -93,24 -146,24 -109,0 -210,-33 -304,-100l97 -183c69,62 135,94 201,94 29,0 54,-7 75,-21 24,-16 36,-38 36,-67 0,-26 -14,-47 -40,-65 -20,-13 -53,-26 -99,-39 -57,-17 -92,-28 -107,-35 -23,-10 -43,-21 -59,-34 -46,-39 -70,-97 -70,-175 0,-81 24,-148 73,-202 56,-63 131,-94 225,-94 95,0 187,24 278,71l-91 177c-50,-39 -100,-59 -150,-59 -25,0 -46,6 -66,19 -21,14 -32,33 -32,57 0,23 14,43 43,60 13,8 51,21 115,40 80,24 138,57 172,100 29,37 44,84 44,142zm643 290l-498 0 0 -876 498 0 0 189 -271 0 0 151 256 0 0 189 -256 0 0 158 271 0 0 189zm750 -290c0,148 -65,245 -195,290 -45,16 -94,24 -146,24 -109,0 -210,-33 -304,-100l97 -183c69,62 135,94 201,94 29,0 54,-7 75,-21 23,-16 35,-38 35,-67 0,-26 -13,-47 -39,-65 -20,-13 -53,-26 -99,-39 -57,-17 -92,-28 -107,-35 -23,-10 -43,-21 -59,-34 -47,-39 -70,-97 -70,-175 0,-81 24,-148 73,-202 56,-63 131,-94 225,-94 94,0 187,24 277,71l-90 177c-50,-39 -100,-59 -150,-59 -25,0 -47,6 -66,19 -21,14 -32,33 -32,57 0,23 14,43 42,60 13,8 52,21 116,40 80,24 138,57 172,100 29,37 44,84 44,142z"/>
 </g>
</svg>
