<?xml version="1.0" encoding="UTF-8"?>
<!DOCTYPE svg PUBLIC "-//W3C//DTD SVG 1.1//EN" "http://www.w3.org/Graphics/SVG/1.1/DTD/svg11.dtd">
<!-- Creator: CorelDRAW X7 -->
<svg xmlns="http://www.w3.org/2000/svg" xml:space="preserve" width="86.6986mm" height="27.2626mm" version="1.1" style="shape-rendering:geometricPrecision; text-rendering:geometricPrecision; image-rendering:optimizeQuality; fill-rule:evenodd; clip-rule:evenodd"
viewBox="0 0 8670 2726"
 xmlns:xlink="http://www.w3.org/1999/xlink">
 <defs>
  <style type="text/css">
   <![CDATA[
    .fil2 {fill:#474443}
    .fil0 {fill:#F29740}
    .fil1 {fill:#F08519}
    .fil3 {fill:#F08519;fill-rule:nonzero}
    .fil4 {fill:#242222;fill-rule:nonzero}
   ]]>
  </style>
 </defs>
 <g id="Layer_x0020_1">
  <metadata id="CorelCorpID_0Corel-Layer"/>
  <g id="_726220832">
   <g>
    <path class="fil0" d="M1362 193c646,0 1170,524 1170,1170 0,647 -524,1171 -1170,1171 -647,0 -1171,-524 -1171,-1171 0,-646 524,-1170 1171,-1170zm0 -193c753,0 1363,610 1363,1363 0,753 -610,1363 -1363,1363 -753,0 -1363,-610 -1363,-1363 0,-753 610,-1363 1363,-1363z"/>
    <path class="fil1" d="M825 1740c208,297 617,369 914,160 2,-1 4,-3 6,-4l1 -1c4,-3 8,-5 12,-8l2 -2c3,-2 7,-5 10,-8l4 -3c3,-2 6,-5 9,-7 2,-2 4,-3 5,-5 3,-2 5,-4 7,-5 2,-2 5,-5 7,-7 1,-1 3,-3 4,-4 3,-2 6,-5 8,-7l4 -4c3,-2 5,-5 8,-8l3 -3c3,-3 6,-6 9,-9l2 -2c3,-4 6,-7 9,-10l3 -3c3,-3 6,-7 9,-10l1 -2c3,-3 6,-7 9,-11l1 -1c3,-4 6,-8 9,-11l1 -2c3,-3 6,-7 9,-11l1 -2c3,-3 6,-7 8,-11l1 -1c3,-5 6,-9 8,-13l1 -1c3,-4 6,-8 8,-12l1 -1c4,-6 8,-13 11,-20l-155 -89c-3,4 -6,9 -9,14l0 0c-2,3 -4,6 -6,10l0 0c-2,3 -4,6 -6,9l-1 1c-2,3 -4,6 -6,8l-1 1c-2,3 -4,6 -6,9l-1 1c-2,2 -4,5 -6,8l-1 1c-2,3 -5,5 -7,8l-1 1c-2,3 -4,5 -7,8l-1 2c-2,2 -4,4 -7,7l-2 2c-2,2 -4,4 -6,6l-2 2c-2,2 -4,4 -6,6l-3 3c-2,1 -3,3 -5,5 -1,1 -2,2 -4,3 -1,1 -3,3 -5,5 -1,1 -3,2 -4,3 -2,2 -3,3 -5,4 -2,2 -4,4 -6,5l-3 2c-2,2 -5,4 -7,6l-1 1c-3,2 -6,5 -9,7l-1 0c-1,1 -3,2 -4,3 -216,152 -513,100 -664,-116 -152,-215 -100,-513 116,-664 212,-149 503,-101 657,106l0 0c2,3 5,7 7,10l0 0c8,12 16,24 23,36l155 -90c-9,-17 -20,-33 -31,-49l0 0c-3,-5 -7,-9 -10,-14l0 0c-211,-285 -612,-351 -904,-146 -297,208 -369,618 -160,914z"/>
    <path class="fil1" d="M1362 40c730,0 1323,593 1323,1323 0,731 -593,1323 -1323,1323 -731,0 -1323,-592 -1323,-1323 0,-730 592,-1323 1323,-1323zm0 187c627,0 1136,509 1136,1136 0,627 -509,1136 -1136,1136 -628,0 -1136,-509 -1136,-1136 0,-627 508,-1136 1136,-1136z"/>
    <path class="fil2" d="M1362 378c364,0 682,198 853,493l-116 66 -40 23c-139,-240 -399,-402 -697,-402 -445,0 -806,360 -806,805 0,445 361,806 806,806 413,0 754,-312 800,-713l-493 0c-39,132 -162,228 -307,228 -178,0 -322,-143 -322,-321 0,-177 144,-321 322,-321 145,0 268,96 307,228l673 0c3,31 4,62 4,93 0,8 0,16 0,25l0 2c0,7 0,14 -1,21 0,2 0,4 0,7 0,5 -1,10 -1,15 0,4 -1,9 -1,14 0,3 -1,6 -1,9 -47,500 -468,892 -980,892 -544,0 -985,-441 -985,-985 0,-544 441,-985 985,-985z"/>
   </g>
   <g>
    <path class="fil3" d="M4234 710c0,94 -10,172 -32,231 -31,90 -85,160 -159,208 -71,47 -156,70 -254,70 -159,0 -281,-54 -366,-162 -65,-82 -96,-180 -96,-294 0,-126 37,-232 113,-318 85,-98 204,-147 357,-147 102,0 189,27 261,78 50,38 94,93 130,166l-213 87c-19,-40 -40,-69 -64,-90 -34,-28 -76,-42 -125,-42 -97,0 -165,51 -204,151 -15,38 -21,75 -21,115 0,82 25,150 78,205 38,41 90,61 154,61 58,0 103,-17 137,-49 22,-22 37,-55 43,-97l-186 0 0 -173 447 0zm900 114c0,53 -5,97 -13,134 -13,57 -45,109 -94,156 -71,67 -165,101 -282,101 -120,0 -214,-35 -281,-102 -36,-36 -59,-81 -72,-135 -10,-38 -14,-89 -14,-154l0 -500 225 0 0 470c0,37 0,65 2,84 4,58 30,99 80,123 21,9 42,14 67,14 56,0 97,-19 125,-58 21,-28 31,-83 31,-163l0 -470 226 0 0 500zm1005 368l-241 0 -55 -151 -312 0 -60 151 -237 0 333 -868 246 0 326 868 0 0zm-356 -322l-95 -278 -96 278 191 0zm1175 322l-279 0 -215 -332 0 332 -225 0 0 -868 351 0c102,0 178,31 227,93 39,50 60,108 60,174 0,78 -23,139 -69,185 -29,29 -69,49 -121,61l271 355 0 0zm-316 -588c0,-30 -10,-57 -33,-78 -21,-20 -56,-30 -102,-30l-43 0 0 217 43 0c47,0 81,-10 102,-29 23,-22 33,-49 33,-80l0 0zm1172 154c0,90 -26,173 -81,250 -54,78 -124,131 -208,161 -45,15 -91,23 -138,23l-332 0 0 -868 332 0c82,0 157,23 226,68 69,44 121,103 157,177 29,61 44,123 44,189l0 0zm-233 0c0,-61 -17,-113 -51,-158 -45,-59 -110,-89 -199,-89l-51 0 0 494 51 0c89,0 155,-30 199,-90 34,-44 51,-97 51,-157z"/>
    <path class="fil4" d="M8671 2117c0,147 -64,243 -193,287 -45,16 -93,24 -145,24 -108,0 -208,-33 -301,-99l96 -181c69,61 134,93 200,93 28,0 53,-7 74,-21 23,-16 34,-38 34,-66 0,-26 -12,-47 -38,-65 -20,-13 -53,-25 -98,-38 -57,-17 -91,-28 -106,-35 -23,-10 -43,-21 -59,-34 -46,-38 -69,-96 -69,-173 0,-80 24,-147 72,-200 56,-63 130,-93 223,-93 93,0 185,23 275,70l-90 175c-49,-38 -99,-58 -148,-58 -25,0 -47,6 -66,19 -20,14 -31,32 -31,56 0,23 14,43 41,60 13,8 52,20 115,39 80,24 137,57 171,99 28,37 43,84 43,141l0 0z"/>
    <polygon class="fil4" points="7928,2404 7435,2404 7435,1536 7928,1536 7928,1724 7660,1724 7660,1873 7913,1873 7913,2061 7660,2061 7660,2217 7928,2217 7928,2404 "/>
    <path class="fil4" d="M7291 2117c0,147 -64,243 -193,287 -44,16 -92,24 -145,24 -108,0 -208,-33 -301,-99l96 -181c69,61 134,93 200,93 28,0 53,-7 74,-21 24,-16 36,-38 36,-66 0,-26 -14,-47 -40,-65 -20,-13 -53,-25 -98,-38 -57,-17 -91,-28 -106,-35 -23,-10 -43,-21 -59,-34 -45,-38 -69,-96 -69,-173 0,-80 24,-147 72,-200 56,-63 130,-93 223,-93 94,0 185,23 276,70l-91 175c-49,-38 -99,-58 -148,-58 -25,0 -46,6 -66,19 -20,14 -31,32 -31,56 0,23 14,43 42,60 13,8 51,20 114,39 80,24 137,57 171,99 28,37 43,84 43,141l0 0z"/>
    <path class="fil4" d="M6510 2037c0,52 -5,97 -13,134 -14,56 -45,108 -94,156 -71,66 -165,99 -282,99 -121,0 -214,-34 -281,-101 -36,-36 -59,-80 -72,-135 -10,-37 -14,-89 -14,-153l0 -501 225 0 0 469c0,38 0,66 2,84 4,60 30,100 80,124 21,10 42,14 67,14 56,0 97,-19 125,-57 21,-29 31,-84 31,-165l0 -469 226 0 0 501z"/>
    <path class="fil4" d="M5297 2081l-95 -276 -95 276 190 0zm356 323l-241 0 -55 -150 -312 0 -59 150 -239 0 334 -868 246 0 326 868 0 0z"/>
    <polygon class="fil4" points="4628,2404 4133,2404 4133,1536 4358,1536 4358,2217 4628,2217 4628,2404 "/>
    <path class="fil4" d="M3989 2383c-73,30 -141,45 -204,45 -109,0 -207,-36 -293,-105 -111,-89 -165,-206 -165,-350 0,-143 54,-260 165,-349 86,-71 184,-105 295,-105 60,0 128,14 202,43l0 270c-20,-26 -42,-46 -64,-59 -41,-24 -83,-36 -130,-36 -58,0 -109,17 -152,53 -55,45 -82,106 -82,183 0,78 27,139 82,184 43,34 94,52 152,52 47,0 89,-12 130,-37 22,-11 44,-31 64,-58l0 269 0 0z"/>
   </g>
  </g>
 </g>
</svg>
